<svg width="70" height="70" viewBox="0 0 70 70" fill="none" xmlns="http://www.w3.org/2000/svg">
<path d="M57.6953 16.543C50.9277 16.543 45.3906 22.0801 45.3906 28.8477V32.9492H70V28.8477C70 22.0801 64.4629 16.543 57.6953 16.543Z" fill="#73BCFF"/>
<path d="M70 28.8477V32.9492H57.6953V16.543C64.4629 16.543 70 22.0801 70 28.8477Z" fill="#0095FF"/>
<path d="M57.6953 0C53.1836 0 49.4922 3.82812 49.4922 8.33984C49.4922 12.8516 53.1836 16.543 57.6953 16.543C62.207 16.543 65.8984 12.8516 65.8984 8.33984C65.8984 3.82812 62.207 0 57.6953 0Z" fill="#73BCFF"/>
<path d="M57.6953 16.543V0C62.207 0 65.8984 3.82812 65.8984 8.33984C65.8984 12.8516 62.207 16.543 57.6953 16.543Z" fill="#0095FF"/>
<path d="M10.2539 53.457H22.5586V67.9492H10.2539V53.457Z" fill="#FFD400"/>
<path d="M31.0352 45.2539H43.3398V67.9492H31.0352V45.2539Z" fill="#FF7816"/>
<path d="M51.543 37.0508H63.8477V67.9492H51.543V37.0508Z" fill="#73BCFF"/>
<path d="M16.4062 53.457H22.5586V67.9492H16.4062V53.457Z" fill="#FF9F00"/>
<path d="M37.1875 45.2539H43.3398V67.9492H37.1875V45.2539Z" fill="#DD3400"/>
<path d="M57.6953 37.0508H63.8477V67.9492H57.6953V37.0508Z" fill="#0095FF"/>
<path d="M70 65.8984V70H0V0H4.10156V65.8984H70Z" fill="#5A5A5A"/>
<path d="M37.1875 65.8984H70V70H37.1875V65.8984Z" fill="#444444"/>
</svg>
