<svg width="78" height="78" viewBox="0 0 78 78" fill="none" xmlns="http://www.w3.org/2000/svg">
<path d="M77.9995 55.4841L52.8938 74.4164L51.2935 75.6053H27.7422L13.8711 66.4594L9.29785 52.7407L13.8711 39.0214H26.142L39.8612 48.1674H52.8938V57.3134H32.3154V61.8867H54.2654L72.4664 48.1674L77.9995 55.4841Z" fill="#FED2A4"/>
<path d="M52.8945 20.7295C45.3487 20.7295 39.1758 26.903 39.1758 34.4488V39.0215H66.6137V34.4488C66.6137 26.903 60.4402 20.7295 52.8945 20.7295Z" fill="#73BCFF"/>
<path d="M66.6138 34.4488V39.0215H52.8945V20.7295C60.4403 20.7295 66.6138 26.903 66.6138 34.4488Z" fill="#0095FF"/>
<path d="M52.894 2.4375C47.8637 2.4375 43.748 6.55316 43.748 11.5835C43.748 16.6138 47.8637 20.7295 52.894 20.7295C57.9243 20.7295 62.04 16.6138 62.04 11.5835C62.04 6.55316 57.9243 2.4375 52.894 2.4375Z" fill="#73BCFF"/>
<path d="M52.8945 20.7295V2.4375C57.9249 2.4375 62.0405 6.55316 62.0405 11.5835C62.0405 16.6138 57.9249 20.7295 52.8945 20.7295Z" fill="#0095FF"/>
<path d="M78.0003 55.4841L52.8945 74.4164V61.8867H54.2662L72.4671 48.1674L78.0003 55.4841Z" fill="#FFBD86"/>
<path d="M0 39.0214H13.8716V66.4594H0V39.0214Z" fill="#5A5A5A"/>
</svg>
