<svg width="78" height="78" viewBox="0 0 78 78" fill="none" xmlns="http://www.w3.org/2000/svg">
<path d="M61.8516 13.7109H57.2812V32.1445H48.1406V13.7109H43.5703L52.7109 0L61.8516 13.7109Z" fill="#FF7816"/>
<path d="M61.8516 13.7109H57.2812V32.1445H52.7109V0L61.8516 13.7109Z" fill="#FF4B00"/>
<path d="M25.2891 13.7109H20.7188V32.1445H11.5781V13.7109H7.00781L16.1484 0L25.2891 13.7109Z" fill="#FF7816"/>
<path d="M25.2891 13.7109H20.7188V32.1445H16.1484V0L25.2891 13.7109Z" fill="#FF4B00"/>
<path d="M43.5703 13.7109H39V32.1445H29.8594V13.7109H25.2891L34.4297 0L43.5703 13.7109Z" fill="#FF7816"/>
<path d="M63.2685 27.5742H4.72266V29.8594C4.72266 37.9491 8.05875 45.718 13.8633 51.294V78H45.8555V64.1367H64.1367V50.4258H73.2773L63.2685 27.5742Z" fill="#FED2A4"/>
<path d="M43.5703 13.7109H39V32.1445H34.4297V0L43.5703 13.7109Z" fill="#FF4B00"/>
<path d="M73.2773 50.4258H64.1367V64.1367H45.8555V78H34.4297V27.5742H63.2685L73.2773 50.4258Z" fill="#FFBD86"/>
</svg>
