<svg width="78" height="78" viewBox="0 0 78 78" fill="none" xmlns="http://www.w3.org/2000/svg">
<path d="M0 23.0039H78V78H0V23.0039Z" fill="#FF7816"/>
<path d="M39 23.0039H78V78H39V23.0039Z" fill="#FF4B00"/>
<path d="M4.57031 27.5742H73.4297V73.4297H4.57031V27.5742Z" fill="#EDE9E8"/>
<path d="M39 27.5742H73.4297V73.4297H39V27.5742Z" fill="#DFD7D5"/>
<path d="M50.4258 54.9961H68.8594V59.5664H50.4258V54.9961Z" fill="#C4B3AF"/>
<path d="M41.2852 45.8555H68.8594V50.4258H41.2852V45.8555Z" fill="#C4B3AF"/>
<path d="M50.4258 36.7148H68.8594V41.2852H50.4258V36.7148Z" fill="#FF4B00"/>
<path d="M41.2852 64.1367H68.8594V68.707H41.2852V64.1367Z" fill="#C4B3AF"/>
<path d="M23.0039 50.4258C15.4629 50.4258 9.29297 56.5957 9.29297 64.1367V68.707H36.7148V64.1367C36.7148 56.5957 30.5449 50.4258 23.0039 50.4258Z" fill="#73BCFF"/>
<path d="M36.7148 64.1367V68.707H23.0039V50.4258C30.5449 50.4258 36.7148 56.5957 36.7148 64.1367Z" fill="#0095FF"/>
<path d="M23.0039 32.1445C17.9766 32.1445 13.8633 36.2578 13.8633 41.2852C13.8633 46.3125 17.9766 50.4258 23.0039 50.4258C28.0312 50.4258 32.1445 46.3125 32.1445 41.2852C32.1445 36.2578 28.0312 32.1445 23.0039 32.1445Z" fill="#73BCFF"/>
<path d="M23.0039 50.4258V32.1445C28.0312 32.1445 32.1445 36.2578 32.1445 41.2852C32.1445 46.3125 28.0312 50.4258 23.0039 50.4258Z" fill="#0095FF"/>
<path d="M35.0907 19.3709L19.1035 3.23135L22.3349 0L38.322 16.1395L35.0907 19.3709Z" fill="#5A5A5A"/>
<path d="M40.6161 21.6649L37.3848 18.4336L55.666 0L58.8974 3.23135L40.6161 21.6649Z" fill="#444444"/>
<path d="M34.4297 13.8633H43.5703V27.5742H34.4297V13.8633Z" fill="#73BCFF"/>
<path d="M39 13.8633H43.5703V27.5742H39V13.8633Z" fill="#3AAAFF"/>
</svg>
