<svg width="57" height="57" viewBox="0 0 57 57" fill="none" xmlns="http://www.w3.org/2000/svg">
<g clip-path="url(#clip0)">
<path d="M56.4025 35.2152C56.0402 35.0713 55.6267 35.1613 55.3575 35.4431L51.3001 39.7079V14.376H51.3049L55.1761 10.196C55.5323 9.81111 55.5088 9.20968 55.1235 8.85352L53.7293 7.55585L55.6654 5.46584C56.0211 5.08054 55.9972 4.47954 55.6119 4.12381L51.4319 0.252549C51.047 -0.103614 50.446 -0.0805653 50.0898 0.304734L43.3353 7.59803H10.4501C10.447 4.97573 8.32221 2.85093 5.69991 2.84789H4.75014C2.12785 2.85093 0.00304413 4.97573 0 7.59803V48.4481C0 48.9725 0.425308 49.3978 0.950203 49.3978H15.3311L13.3359 51.7936C13.0006 52.1971 13.0554 52.7959 13.4585 53.1312L17.839 56.7785C18.2422 57.1143 18.8414 57.0595 19.1771 56.6563L24.0399 50.8142C24.3756 50.4098 24.5918 49.9188 24.6631 49.3978H42.0707L36.3612 55.3935C35.9999 55.7735 36.0151 56.375 36.3952 56.7364C36.5717 56.9042 36.8061 56.9981 37.0501 56.9977H56.0498C56.5747 56.9977 57 56.5724 57 56.0479V36.098C57 35.7093 56.7634 35.3596 56.4025 35.2152ZM53.1366 9.5928L51.3001 11.5793V10.1821L52.4399 8.94701L53.1366 9.5928ZM49.4001 9.42364V9.43712L41.3658 18.1203L38.5756 15.5389L48.2542 5.07923L51.0444 7.66065L49.4114 9.42364H49.4001ZM39.5411 19.0187L37.3558 19.6563L37.8224 17.4275L39.5411 19.0187ZM50.8356 2.29038L53.6245 4.87049L52.3338 6.26775L49.5445 3.68502L50.8356 2.29038ZM4.75014 4.74786H5.69991C7.27416 4.74786 8.55009 6.02378 8.55009 7.59803V43.7227C7.73252 43.0939 6.731 42.7512 5.69991 42.7477H4.75014C3.71862 42.7512 2.71754 43.0939 1.89997 43.7227V7.59803C1.89997 6.02378 3.1759 4.74786 4.75014 4.74786ZM4.75014 44.6477H5.69991C7.27416 44.6477 8.55009 45.924 8.55009 47.4979H1.89997C1.89997 45.924 3.1759 44.6477 4.75014 44.6477ZM22.5805 49.5992L21.9725 50.3289L19.0523 47.8979L19.6594 47.1674C19.9951 46.7642 20.594 46.7094 20.9971 47.0452L22.4578 48.258C22.8614 48.5933 22.9166 49.1921 22.5813 49.5957L22.5805 49.5992ZM18.3257 54.7103L15.405 52.2793L17.8364 49.3578L20.7566 51.7892L18.3257 54.7103ZM24.2639 47.4979C24.106 47.2348 23.9064 46.9995 23.6729 46.8008L22.213 45.5857C21.0032 44.5785 19.2063 44.7425 18.1991 45.9523L16.9101 47.4979H10.4501V9.498H41.5776L36.5361 14.9461C36.4639 15.0274 36.4065 15.1214 36.3669 15.2227C36.3556 15.2501 36.3469 15.2758 36.3373 15.3045C36.3282 15.3327 36.3138 15.3614 36.3069 15.3919L35.1727 20.8143C35.0658 21.3279 35.3954 21.8311 35.909 21.938C36.0616 21.9698 36.2195 21.9637 36.3686 21.9202L41.6889 20.3699C41.7137 20.3621 41.7346 20.3477 41.758 20.3394C41.782 20.3307 41.8068 20.3186 41.8324 20.306C41.939 20.2577 42.0355 20.1894 42.1173 20.1055L49.4001 12.2347V41.7027L43.8807 47.4979H24.2639ZM55.1 55.0977H39.2662L55.1 38.4729V55.0977Z" fill="white"/>
<path d="M44.7222 52.6116C44.8692 52.9665 45.2158 53.1978 45.6002 53.1978H52.2499C52.7748 53.1978 53.2001 52.7725 53.2001 52.2481V45.598C53.2001 45.0731 52.7743 44.6482 52.2499 44.6482C51.9981 44.6482 51.7563 44.7482 51.5784 44.9265L44.9283 51.5762C44.6565 51.848 44.5752 52.2568 44.7222 52.6116ZM51.3001 47.8911V51.2979H47.8933L51.3001 47.8911Z" fill="white"/>
<path d="M41.7998 36.0981H35.1501V25.6481C35.1488 25.3958 35.0484 25.1541 34.8705 24.9753L29.1706 19.2754C28.7996 18.9045 28.1982 18.9045 27.8272 19.2754L22.1273 24.9753C21.9503 25.1545 21.8508 25.3963 21.8499 25.6481V36.0981H15.2002C14.6753 36.0981 14.25 36.5234 14.25 37.0479C14.25 37.5728 14.6753 37.9981 15.2002 37.9981H41.8002C42.3247 37.9981 42.75 37.5728 42.75 37.0479C42.75 36.5234 42.3247 36.0981 41.7998 36.0981ZM28.5 21.2911L31.9068 24.6979H25.0932L28.5 21.2911ZM23.7499 26.5978H33.2501V36.0981H23.7499V26.5978Z" fill="#FF6A29"/>
<path d="M27.5498 15.198H29.4502V17.098H27.5498V15.198Z" fill="#FF6A29"/>
<path d="M27.5498 39.8981H29.4502V41.798H27.5498V39.8981Z" fill="#FF6A29"/>
</g>
<defs>
<clipPath id="clip0">
<rect width="57" height="57" fill="white"/>
</clipPath>
</defs>
</svg>
