<svg width="57" height="57" viewBox="0 0 57 57" fill="none" xmlns="http://www.w3.org/2000/svg">
<g clip-path="url(#clip0)">
<path d="M56.4025 35.2154C56.0402 35.0714 55.6267 35.1614 55.3575 35.4432L51.3001 39.7081V14.3761H51.3049L55.1761 10.1961C55.5323 9.81123 55.5088 9.2098 55.1235 8.85364L53.7293 7.55597L55.6654 5.46596C56.0211 5.08066 55.9972 4.47966 55.6119 4.12393L51.4319 0.252671C51.047 -0.103492 50.446 -0.0804432 50.0898 0.304856L43.3353 7.59815H10.4501C10.447 4.97585 8.32221 2.85105 5.69991 2.84801H4.75014C2.12785 2.85105 0.00304413 4.97585 0 7.59815V48.4482C0 48.9726 0.425308 49.398 0.950203 49.398H15.3311L13.3359 51.7937C13.0006 52.1972 13.0554 52.7961 13.4585 53.1314L17.839 56.7787C18.2422 57.1144 18.8414 57.0596 19.1771 56.6565L24.0399 50.8143C24.3756 50.4099 24.5918 49.9189 24.6631 49.398H42.0707L36.3612 55.3936C35.9999 55.7737 36.0151 56.3751 36.3952 56.7365C36.5717 56.9043 36.8061 56.9983 37.0501 56.9978H56.0498C56.5747 56.9978 57 56.5725 57 56.0481V36.0982C57 35.7094 56.7634 35.3597 56.4025 35.2154ZM53.1366 9.59293L51.3001 11.5794V10.1822L52.4399 8.94714L53.1366 9.59293ZM49.4001 9.42376V9.43724L41.3658 18.1204L38.5756 15.539L48.2542 5.07935L51.0444 7.66078L49.4114 9.42376H49.4001ZM39.5411 19.0189L37.3558 19.6564L37.8224 17.4276L39.5411 19.0189ZM50.8356 2.2905L53.6245 4.87061L52.3338 6.26787L49.5445 3.68514L50.8356 2.2905ZM4.75014 4.74798H5.69991C7.27416 4.74798 8.55009 6.0239 8.55009 7.59815V43.7228C7.73252 43.094 6.731 42.7513 5.69991 42.7478H4.75014C3.71862 42.7513 2.71754 43.094 1.89997 43.7228V7.59815C1.89997 6.0239 3.1759 4.74798 4.75014 4.74798ZM4.75014 44.6478H5.69991C7.27416 44.6478 8.55009 45.9242 8.55009 47.498H1.89997C1.89997 45.9242 3.1759 44.6478 4.75014 44.6478ZM22.5805 49.5993L21.9725 50.329L19.0523 47.8981L19.6594 47.1675C19.9951 46.7643 20.594 46.7096 20.9971 47.0453L22.4578 48.2581C22.8614 48.5934 22.9166 49.1923 22.5813 49.5958L22.5805 49.5993ZM18.3257 54.7104L15.405 52.2794L17.8364 49.3579L20.7566 51.7893L18.3257 54.7104ZM24.2639 47.498C24.106 47.2349 23.9064 46.9996 23.6729 46.8009L22.213 45.5858C21.0032 44.5787 19.2063 44.7426 18.1991 45.9524L16.9101 47.498H10.4501V9.49812H41.5776L36.5361 14.9462C36.4639 15.0276 36.4065 15.1215 36.3669 15.2228C36.3556 15.2502 36.3469 15.2759 36.3373 15.3046C36.3282 15.3328 36.3138 15.3616 36.3069 15.392L35.1727 20.8145C35.0658 21.328 35.3954 21.8312 35.909 21.9382C36.0616 21.9699 36.2195 21.9638 36.3686 21.9203L41.6889 20.37C41.7137 20.3622 41.7346 20.3478 41.758 20.3396C41.782 20.3309 41.8068 20.3187 41.8324 20.3061C41.939 20.2578 42.0355 20.1895 42.1173 20.1056L49.4001 12.2348V41.7028L43.8807 47.498H24.2639ZM55.1 55.0979H39.2662L55.1 38.473V55.0979Z" fill="#2269F1"/>
<path d="M44.7222 52.6116C44.8692 52.9665 45.2158 53.1978 45.6002 53.1978H52.2499C52.7748 53.1978 53.2001 52.7725 53.2001 52.2481V45.598C53.2001 45.0731 52.7743 44.6482 52.2499 44.6482C51.9981 44.6482 51.7563 44.7482 51.5784 44.9265L44.9283 51.5762C44.6565 51.848 44.5752 52.2568 44.7222 52.6116V52.6116ZM51.3001 47.8911V51.2979H47.8933L51.3001 47.8911Z" fill="#2269F1"/>
<path d="M41.7998 36.0983H35.1501V25.6482C35.1488 25.396 35.0484 25.1542 34.8705 24.9754L29.1706 19.2755C28.7996 18.9046 28.1982 18.9046 27.8272 19.2755L22.1273 24.9754C21.9503 25.1546 21.8508 25.3964 21.8499 25.6482V36.0983H15.2002C14.6753 36.0983 14.25 36.5236 14.25 37.048C14.25 37.5729 14.6753 37.9982 15.2002 37.9982H41.8002C42.3247 37.9982 42.75 37.5729 42.75 37.048C42.75 36.5236 42.3247 36.0983 41.7998 36.0983ZM28.5 21.2912L31.9068 24.698H25.0932L28.5 21.2912ZM23.7499 26.598H33.2501V36.0983H23.7499V26.598Z" fill="#FF6A29"/>
<path d="M27.5498 15.198H29.4502V17.098H27.5498V15.198Z" fill="#FF6A29"/>
<path d="M27.5498 39.8979H29.4502V41.7979H27.5498V39.8979Z" fill="#FF6A29"/>
</g>
<defs>
<clipPath id="clip0">
<rect width="57" height="57" fill="white"/>
</clipPath>
</defs>
</svg>
