<svg width="38" height="38" fill="none" xmlns="http://www.w3.org/2000/svg"><g clip-path="url(#clip0)"><path d="M5.97 3.75L2.445 7.276a8.345 8.345 0 0 0 0 11.801l16.478 16.479a8.345 8.345 0 0 0 11.802 0l3.525-3.526-9.427-9.427-4.713 4.713-9.426-9.426 4.713-4.713L5.97 3.75z" fill="#FF4E51"/><path d="M5.97 3.75L2.445 7.276a8.345 8.345 0 0 0-.001 11.801l8.24 8.24 4.713-4.714-4.713-4.713 4.713-4.713L5.97 3.75z" fill="#FF2B59"/><path d="M2.444 19.077l16.479 16.479a8.348 8.348 0 0 0 10.494 1.068L1.376 8.582a8.348 8.348 0 0 0 1.068 10.495z" fill="#233952"/><path d="M1.376 8.583a8.348 8.348 0 0 0 1.069 10.495l8.239 8.239 4.713-4.714-14.02-14.02z" fill="#09213D"/><path d="M35.773 17.386H38C38 7.799 30.198 0 20.61 0v2.227c8.36 0 15.163 6.8 15.163 15.159z" fill="#54A5FF"/><path d="M31.017 17.386h2.226c0-6.965-5.667-12.63-12.634-12.63v2.226c5.739 0 10.408 4.667 10.408 10.404z" fill="#54A5FF"/><path d="M26.26 17.386h2.227c0-4.343-3.534-7.876-7.878-7.876v2.227a5.657 5.657 0 0 1 5.651 5.649z" fill="#54A5FF"/><path d="M20.609 0v2.227c4.181 0 7.972 1.7 10.717 4.444L32.9 5.098A17.338 17.338 0 0 0 20.609 0zm.001 4.755l-.001 2.227a10.38 10.38 0 0 1 7.356 3.05L29.54 8.46a12.6 12.6 0 0 0-8.93-3.704zm0 4.755l-.001 2.227c1.559 0 2.971.634 3.995 1.657l1.574-1.574a7.855 7.855 0 0 0-5.569-2.31z" fill="#1E8AFF"/></g><defs><clipPath id="clip0"><path fill="#fff" transform="matrix(-1 0 0 1 38 0)" d="M0 0h38v38H0z"/></clipPath></defs></svg>