<svg width="48" height="48" fill="none" xmlns="http://www.w3.org/2000/svg"><path d="M24 0v10.305c4.353 0 7.896 3.541 7.896 7.896 0 4.354-3.543 7.896-7.896 7.896V48l14.453-18.172A18.22 18.22 0 0 0 42.42 18.42C42.42 8.264 34.156 0 24 0z" fill="#CD2A00"/><path d="M31.896 18.201c0-4.355-3.543-7.896-7.896-7.896v15.792c4.353 0 7.896-3.542 7.896-7.896z" fill="#D8D7DA"/><path d="M16.104 18.201c0-4.355 3.542-7.896 7.896-7.896V0C13.843 0 5.58 8.264 5.58 18.42a18.22 18.22 0 0 0 3.97 11.412L24 48V26.098c-4.354 0-7.896-3.543-7.896-7.897z" fill="#FF3501"/><path d="M16.104 18.201c0 4.354 3.542 7.896 7.896 7.896V10.305c-4.354 0-7.896 3.541-7.896 7.896z" fill="#fff"/></svg>