<svg width="57" height="57" fill="none" xmlns="http://www.w3.org/2000/svg"><g clip-path="url(#clip0)"><path d="M56.403 35.215a.957.957 0 0 0-1.045.228L51.3 39.708V14.376h.005l3.871-4.18a.95.95 0 0 0-.053-1.342L53.73 7.556l1.936-2.09a.95.95 0 0 0-.053-1.342L51.432.253a.95.95 0 0 0-1.342.052l-6.755 7.293H10.45a4.756 4.756 0 0 0-4.75-4.75h-.95A4.755 4.755 0 0 0 0 7.598v40.85c0 .524.425.95.95.95h14.381l-1.995 2.396a.95.95 0 0 0 .123 1.337l4.38 3.648a.95.95 0 0 0 1.338-.123l4.863-5.842c.336-.404.552-.895.623-1.416h17.408l-5.71 5.995a.95.95 0 0 0 .69 1.605H56.05a.95.95 0 0 0 .95-.95v-19.95a.95.95 0 0 0-.597-.883zM53.137 9.593L51.3 11.579v-1.397l1.14-1.235.697.646zm-3.737-.17v.014l-8.034 8.683-2.79-2.581 9.678-10.46 2.79 2.582-1.633 1.763h-.01zm-9.859 9.596l-2.185.637.466-2.229 1.72 1.592zM50.836 2.29l2.788 2.58-1.29 1.398-2.79-2.583 1.292-1.395zM4.75 4.748h.95a2.85 2.85 0 0 1 2.85 2.85v36.125a4.702 4.702 0 0 0-2.85-.975h-.95a4.7 4.7 0 0 0-2.85.975V7.598a2.85 2.85 0 0 1 2.85-2.85zm0 39.9h.95a2.85 2.85 0 0 1 2.85 2.85H1.9a2.85 2.85 0 0 1 2.85-2.85zm17.83 4.951l-.607.73-2.92-2.431.606-.73a.95.95 0 0 1 1.338-.123l1.46 1.213a.95.95 0 0 1 .124 1.338v.003zm-4.254 5.111l-2.921-2.43 2.431-2.922 2.92 2.431-2.43 2.921zm5.938-7.212a2.822 2.822 0 0 0-.591-.697l-1.46-1.215a2.85 2.85 0 0 0-4.014.366l-1.289 1.546h-6.46v-38h31.128l-5.042 5.448a.923.923 0 0 0-.199.359c-.009.028-.023.056-.03.087l-1.134 5.422a.95.95 0 0 0 1.196 1.106l5.32-1.55c.025-.008.046-.022.069-.03a.764.764 0 0 0 .074-.034.94.94 0 0 0 .285-.2l7.283-7.871v29.468l-5.52 5.795H24.265zm30.836 7.6H39.266L55.1 38.473v16.625z" fill="#fff"/><path d="M44.722 52.612a.95.95 0 0 0 .878.586h6.65a.95.95 0 0 0 .95-.95v-6.65a.95.95 0 0 0-1.622-.672l-6.65 6.65a.95.95 0 0 0-.206 1.036zm6.578-4.72v3.406h-3.407L51.3 47.89z" fill="#fff"/><path d="M41.8 36.098h-6.65v-10.45a.96.96 0 0 0-.28-.673l-5.7-5.7a.95.95 0 0 0-1.343 0l-5.7 5.7a.963.963 0 0 0-.277.673v10.45H15.2a.95.95 0 1 0 0 1.9h26.6a.95.95 0 1 0 0-1.9zM28.5 21.291l3.407 3.407h-6.814L28.5 21.29zm-4.75 5.307h9.5v9.5h-9.5v-9.5zm3.8-11.4h1.9v1.9h-1.9v-1.9zm0 24.7h1.9v1.9h-1.9v-1.9z" fill="#FF6A29"/></g><defs><clipPath id="clip0"><path fill="#fff" d="M0 0h57v57H0z"/></clipPath></defs></svg>