<svg width="78" height="78" fill="none" xmlns="http://www.w3.org/2000/svg"><path d="M39 78c21.282-7.961 35.386-28.296 35.386-51.018V13.211c-7.296 0-13.21-5.915-13.21-13.211H16.824c0 7.296-5.915 13.21-13.21 13.21v13.772C3.614 49.704 17.717 70.039 39 78z" fill="#FFDB0C"/><path d="M39 78c21.282-7.961 35.386-28.296 35.386-51.018V13.211c-7.296 0-13.21-5.915-13.21-13.211H39v78z" fill="#FBBF00"/><path d="M34.07 52.754l-11.73-11.73 6.463-6.464 5.268 5.267 15.126-15.126 6.463 6.463-21.59 21.59z" fill="#F1F1F2"/><path d="M39 47.824V34.898L49.197 24.7l6.463 6.463L39 47.824z" fill="#E6E6E6"/></svg>