<svg width="75" height="75" fill="none" xmlns="http://www.w3.org/2000/svg"><g clip-path="url(#clip0)"><path d="M35.294 36.426h4.394v7.227h-4.394v-7.227z" fill="#B7E3FF"/><path d="M37.49 36.426h2.198v7.227H37.49v-7.227z" fill="#97D6FF"/><path d="M31.338 17.919V32.47a6.16 6.16 0 0 0 6.153 6.153 6.16 6.16 0 0 0 6.153-6.153V17.92H31.338z" fill="#E0F4FF"/><path d="M37.49 38.623a6.16 6.16 0 0 0 6.154-6.153V17.92h-6.155v20.704h.002zm13.991 16.208l2.53-5.73 4.021 1.776-2.53 5.73-4.02-1.776z" fill="#B7E3FF"/><path d="M51.481 54.831l2.53-5.73 4.021 1.776-2.53 5.73-4.02-1.776z" fill="#97D6FF"/><path d="M17.022 50.844l4.02-1.775 2.53 5.73-4.02 1.775-2.53-5.73z" fill="#B7E3FF"/><path d="M53.768 10.963l-8.43 9.086 13.436 15.87 10.075-7.144-15.081-17.812z" fill="#E0F4FF"/><path d="M53.768 10.963l-8.43 9.086 13.436 15.87 10.075-7.144-15.081-17.812z" fill="#B7E3FF"/><path d="M57.947 30.237L51.93 43.88a6.082 6.082 0 0 0-.093 4.722 6.082 6.082 0 0 0 3.293 3.384 6.119 6.119 0 0 0 8.039-3.232l6.246-14.652-11.468-3.865z" fill="#E0F4FF"/><path d="M57.947 30.237L51.93 43.88a6.082 6.082 0 0 0-.093 4.722 6.082 6.082 0 0 0 3.293 3.384 6.119 6.119 0 0 0 8.039-3.232l6.246-14.652-11.468-3.865z" fill="#B7E3FF"/><path d="M21.233 10.963L6.15 28.775l10.075 7.144 13.436-15.87-8.43-9.086z" fill="#E0F4FF"/><path d="M23.07 43.88l-6.018-13.643-11.468 3.865 6.247 14.652a6.119 6.119 0 0 0 8.039 3.232 6.08 6.08 0 0 0 3.293-3.384 6.08 6.08 0 0 0-.093-4.721z" fill="#E0F4FF"/><path d="M19.089 2.197l.022 11.274 8.634 8.843h19.51l8.635-8.845V2.197H19.089z" fill="#7DD5F4"/><path d="M37.49 2.197v20.117h9.764l8.636-8.845V2.197h-18.4z" fill="#16A9C7"/><path d="M63.477 36.596a4.394 4.394 0 1 0 0-8.788 4.394 4.394 0 0 0 0 8.788z" fill="#E0F4FF"/><path d="M63.477 36.596a4.394 4.394 0 1 0 0-8.788 4.394 4.394 0 0 0 0 8.788z" fill="#B7E3FF"/><path d="M63.477 38.793a6.599 6.599 0 0 1-6.592-6.591 6.599 6.599 0 0 1 6.592-6.592 6.599 6.599 0 0 1 6.591 6.592 6.6 6.6 0 0 1-6.591 6.591zm0-8.788a2.2 2.2 0 0 0-2.197 2.197 2.2 2.2 0 0 0 2.197 2.196 2.2 2.2 0 0 0 2.196-2.197 2.2 2.2 0 0 0-2.196-2.196z" fill="#2D69AD"/><path d="M63.477 38.793a6.599 6.599 0 0 1-6.592-6.591 6.599 6.599 0 0 1 6.592-6.592 6.599 6.599 0 0 1 6.591 6.592 6.6 6.6 0 0 1-6.591 6.591zm0-8.788a2.2 2.2 0 0 0-2.197 2.197 2.2 2.2 0 0 0 2.197 2.196 2.2 2.2 0 0 0 2.196-2.197 2.2 2.2 0 0 0-2.196-2.196z" fill="#1B3359"/><path d="M11.523 36.596a4.394 4.394 0 1 0 0-8.788 4.394 4.394 0 0 0 0 8.788z" fill="#E0F4FF"/><path d="M11.523 38.793a6.6 6.6 0 0 1-6.591-6.591 6.599 6.599 0 0 1 6.591-6.592 6.599 6.599 0 0 1 6.591 6.592 6.599 6.599 0 0 1-6.59 6.591zm0-8.788a2.2 2.2 0 0 0-2.197 2.197 2.2 2.2 0 0 0 2.197 2.196 2.2 2.2 0 0 0 2.197-2.197 2.2 2.2 0 0 0-2.197-2.196z" fill="#2D69AD"/><path d="M8.404 62.209h58.174v12.79H8.404V62.21z" fill="#7DD5F4"/><path d="M5.907 0h63.169v4.395H5.906V0z" fill="#2D69AD"/><path d="M37.49 62.209h29.088v12.79H37.49V62.21z" fill="#16A9C7"/><path d="M37.49 0h31.585v4.395H37.49V0z" fill="#1B3359"/></g><defs><clipPath id="clip0"><path fill="#fff" d="M0 0h75v75H0z"/></clipPath></defs></svg>