<svg width="48" height="48" viewBox="0 0 48 48" fill="none" xmlns="http://www.w3.org/2000/svg">
<path d="M23.9995 0V10.3048C28.3534 10.3048 31.8959 13.8463 31.8959 18.2011C31.8959 22.555 28.3534 26.0975 23.9995 26.0975V48L38.4528 29.8285C41.0478 26.5466 42.4197 22.6023 42.4197 18.4202C42.4197 8.26354 34.1562 0 23.9995 0Z" fill="#CD2A00"/>
<path d="M31.8959 18.201C31.8959 13.8462 28.3534 10.3047 23.9995 10.3047V26.0974C28.3534 26.0974 31.8959 22.5549 31.8959 18.201Z" fill="#D8D7DA"/>
<path d="M16.1035 18.2011C16.1035 13.8463 19.646 10.3048 23.9998 10.3048V0C13.8431 0 5.57959 8.26354 5.57959 18.4202C5.57959 22.6023 6.95158 26.5466 9.55047 29.8325L23.9998 48V26.0975C19.646 26.0975 16.1035 22.555 16.1035 18.2011Z" fill="#FF3501"/>
<path d="M16.1035 18.201C16.1035 22.5549 19.646 26.0974 23.9999 26.0974V10.3047C19.646 10.3047 16.1035 13.8462 16.1035 18.201Z" fill="white"/>
</svg>
