<svg width="38" height="38" viewBox="0 0 38 38" fill="none" xmlns="http://www.w3.org/2000/svg">
<g clip-path="url(#clip0)">
<path d="M5.97035 3.75L2.44481 7.27554C-0.814503 10.5348 -0.814503 15.8185 2.4443 19.0773L18.9226 35.5558C22.1814 38.8146 27.4651 38.8146 30.7245 35.5553L34.25 32.0297L24.8233 22.603L20.1101 27.3161L10.6839 17.8898L15.397 13.1767L5.97035 3.75Z" fill="#FF4E51"/>
<path d="M5.97017 3.75024L2.44456 7.27586C-0.814465 10.5349 -0.814463 15.8187 2.44404 19.0772L10.6834 27.3167L15.3972 22.6029L10.684 17.8897L15.3967 13.1769L5.97017 3.75024Z" fill="#FF2B59"/>
<path d="M2.44436 19.0773L18.9227 35.5557C21.7745 38.4075 26.1771 38.7639 29.4172 36.6238L1.37584 8.58228C-0.764259 11.8224 -0.407934 16.225 2.44436 19.0773Z" fill="#233952"/>
<path d="M1.37606 8.58252C-0.764109 11.8227 -0.407784 16.2253 2.44459 19.0776L10.6835 27.3165L15.3967 22.6033L1.37606 8.58252Z" fill="#09213D"/>
<path d="M35.7734 17.386H38C38 7.79945 30.1985 0.000244141 20.6091 0.000244141V2.22681C28.9708 2.22681 35.7734 9.02717 35.7734 17.386Z" fill="#54A5FF"/>
<path d="M31.0168 17.386H33.2434C33.2434 10.4213 27.5756 4.75513 20.609 4.75513V6.98169C26.3479 6.98169 31.0168 11.6491 31.0168 17.386Z" fill="#54A5FF"/>
<path d="M26.2605 17.3859H28.4871C28.4871 13.0431 24.9531 9.51001 20.6091 9.51001V11.7366C23.7253 11.7366 26.2605 14.2708 26.2605 17.3859Z" fill="#54A5FF"/>
<path d="M20.6089 0L20.6094 2.22671C24.79 2.22671 28.5807 3.92654 31.3265 6.6713L32.8999 5.09794C29.7505 1.94965 25.4035 0 20.6089 0Z" fill="#1E8AFF"/>
<path d="M20.6094 4.75513L20.6089 6.98184C23.4786 6.98184 26.0805 8.149 27.9651 10.0325L29.5391 8.45864C27.2514 6.17211 24.0921 4.75513 20.6094 4.75513Z" fill="#1E8AFF"/>
<path d="M20.6095 9.51001L20.609 11.7368C22.1677 11.7368 23.5804 12.3708 24.6039 13.3941L26.1777 11.8202C24.7513 10.3938 22.7812 9.51001 20.6095 9.51001Z" fill="#1E8AFF"/>
</g>
<defs>
<clipPath id="clip0">
<rect width="38" height="38" fill="white" transform="matrix(-1 0 0 1 38 0)"/>
</clipPath>
</defs>
</svg>
