<svg width="78" height="78" viewBox="0 0 78 78" fill="none" xmlns="http://www.w3.org/2000/svg">
<path d="M39.0001 78C60.2817 70.0388 74.3859 49.7038 74.3859 26.9821V13.2106C67.0898 13.2106 61.1752 7.29605 61.1752 0H39.0001H16.8249C16.8249 7.29605 10.9103 13.2106 3.61426 13.2106V26.9819C3.61426 49.7038 17.7184 70.0388 39.0001 78Z" fill="#FFDB0C"/>
<path d="M39 78C60.2817 70.0388 74.3858 49.7038 74.3858 26.9821V13.2106C67.0898 13.2106 61.1752 7.29605 61.1752 0H39C39 0 39 60.6328 39 78Z" fill="#FBBF00"/>
<path d="M34.0706 52.7538L22.3398 41.0232L28.8032 34.5597L34.0706 39.8271L49.1971 24.7006L55.6605 31.164L34.0706 52.7538Z" fill="#F1F1F2"/>
<path d="M39 47.8243V34.8976L49.197 24.7006L55.6603 31.164L39 47.8243Z" fill="#E6E6E6"/>
</svg>
