<svg width="75" height="75" viewBox="0 0 75 75" fill="none" xmlns="http://www.w3.org/2000/svg">
<g clip-path="url(#clip0)">
<path d="M35.2937 36.4257H39.6884V43.6525H35.2937V36.4257Z" fill="#B7E3FF"/>
<path d="M37.4893 36.4257H39.6882V43.6525H37.4893V36.4257Z" fill="#97D6FF"/>
<path d="M31.3384 17.9188V32.4704C31.3384 35.863 34.0984 38.6231 37.491 38.6231C40.8836 38.6231 43.6436 35.863 43.6436 32.4704V17.9188H31.3384Z" fill="#E0F4FF"/>
<path d="M37.4909 38.6231C40.8835 38.6231 43.6435 35.863 43.6435 32.4704V17.9188H37.4893V38.6231H37.4909Z" fill="#B7E3FF"/>
<path d="M51.4814 54.8313L54.0113 49.1015L58.0325 50.877L55.5026 56.6068L51.4814 54.8313Z" fill="#B7E3FF"/>
<path d="M51.4814 54.8313L54.0113 49.1015L58.0325 50.877L55.5026 56.6068L51.4814 54.8313Z" fill="#97D6FF"/>
<path d="M17.0217 50.8441L21.0429 49.0686L23.5728 54.7984L19.5516 56.5739L17.0217 50.8441Z" fill="#B7E3FF"/>
<path d="M53.7676 10.9631L45.3376 20.0495L58.7741 35.919L68.8486 28.7748L53.7676 10.9631Z" fill="#E0F4FF"/>
<path d="M53.7676 10.9631L45.3376 20.0495L58.7741 35.919L68.8486 28.7748L53.7676 10.9631Z" fill="#B7E3FF"/>
<path d="M57.9475 30.2366L51.9298 43.8805C51.264 45.3902 51.2309 47.067 51.8369 48.6018C52.4428 50.1366 53.6124 51.3385 55.1302 51.9863C55.8961 52.313 56.7043 52.4787 57.5324 52.4787C59.9919 52.4787 62.2047 51.0167 63.169 48.7543L69.4153 34.1019L57.9475 30.2366Z" fill="#E0F4FF"/>
<path d="M57.9475 30.2366L51.9298 43.8805C51.264 45.3902 51.2309 47.067 51.8369 48.6018C52.4428 50.1366 53.6124 51.3385 55.1302 51.9863C55.8961 52.313 56.7043 52.4787 57.5324 52.4787C59.9919 52.4787 62.2047 51.0167 63.169 48.7543L69.4153 34.1019L57.9475 30.2366Z" fill="#B7E3FF"/>
<path d="M21.2325 10.9631L6.15137 28.7748L16.226 35.919L29.6624 20.0495L21.2325 10.9631Z" fill="#E0F4FF"/>
<path d="M23.0701 43.8805L17.0524 30.2366L5.58447 34.1019L11.8308 48.7543C12.7952 51.0167 15.0078 52.4787 17.4675 52.4787C18.2956 52.4787 19.1038 52.313 19.8698 51.9862C21.3875 51.3385 22.5571 50.1366 23.1629 48.6016C23.769 47.067 23.736 45.3902 23.0701 43.8805Z" fill="#E0F4FF"/>
<path d="M19.0886 2.19733L19.1113 13.4714L27.7454 22.3135H47.2544L55.8898 13.4695V2.19733H19.0886Z" fill="#7DD5F4"/>
<path d="M37.4893 2.19733V22.3135H47.2545L55.8898 13.4695V2.19733H37.4893Z" fill="#16A9C7"/>
<path d="M63.4768 36.5956C65.9035 36.5956 67.8708 34.6284 67.8708 32.2016C67.8708 29.7749 65.9035 27.8076 63.4768 27.8076C61.05 27.8076 59.0828 29.7749 59.0828 32.2016C59.0828 34.6284 61.05 36.5956 63.4768 36.5956Z" fill="#E0F4FF"/>
<path d="M63.4768 36.5956C65.9035 36.5956 67.8708 34.6284 67.8708 32.2016C67.8708 29.7749 65.9035 27.8076 63.4768 27.8076C61.05 27.8076 59.0828 29.7749 59.0828 32.2016C59.0828 34.6284 61.05 36.5956 63.4768 36.5956Z" fill="#B7E3FF"/>
<path d="M63.4766 38.793C59.842 38.793 56.8853 35.8359 56.8853 32.2015C56.8853 28.567 59.8422 25.6101 63.4766 25.6101C67.111 25.6101 70.0681 28.567 70.0681 32.2015C70.0681 35.8359 67.111 38.793 63.4766 38.793ZM63.4766 30.0048C62.2653 30.0048 61.28 30.9903 61.28 32.2015C61.28 33.4127 62.2654 34.3982 63.4766 34.3982C64.6878 34.3982 65.6734 33.4127 65.6734 32.2015C65.6734 30.9903 64.6878 30.0048 63.4766 30.0048Z" fill="#2D69AD"/>
<path d="M63.4766 38.793C59.842 38.793 56.8853 35.8359 56.8853 32.2015C56.8853 28.567 59.8422 25.6101 63.4766 25.6101C67.111 25.6101 70.0681 28.567 70.0681 32.2015C70.0681 35.8359 67.111 38.793 63.4766 38.793ZM63.4766 30.0048C62.2653 30.0048 61.28 30.9903 61.28 32.2015C61.28 33.4127 62.2654 34.3982 63.4766 34.3982C64.6878 34.3982 65.6734 33.4127 65.6734 32.2015C65.6734 30.9903 64.6878 30.0048 63.4766 30.0048Z" fill="#1B3359"/>
<path d="M11.5234 36.5956C13.9501 36.5956 15.9174 34.6284 15.9174 32.2016C15.9174 29.7749 13.9501 27.8076 11.5234 27.8076C9.09665 27.8076 7.12939 29.7749 7.12939 32.2016C7.12939 34.6284 9.09665 36.5956 11.5234 36.5956Z" fill="#E0F4FF"/>
<path d="M11.5231 38.793C7.88856 38.793 4.93164 35.8359 4.93164 32.2015C4.93164 28.567 7.88856 25.6101 11.5231 25.6101C15.1577 25.6101 18.1145 28.567 18.1145 32.2015C18.1145 35.8359 15.1576 38.793 11.5231 38.793ZM11.5231 30.0048C10.3118 30.0048 9.32637 30.9903 9.32637 32.2015C9.32637 33.4127 10.3118 34.3982 11.5231 34.3982C12.7345 34.3982 13.7198 33.4127 13.7198 32.2015C13.7198 30.9903 12.7343 30.0048 11.5231 30.0048Z" fill="#2D69AD"/>
<path d="M8.40356 62.2087H66.5783V74.9998H8.40356V62.2087Z" fill="#7DD5F4"/>
<path d="M5.90674 0H69.0755V4.39473H5.90674V0Z" fill="#2D69AD"/>
<path d="M37.4893 62.2087H66.5783V74.9998H37.4893V62.2087Z" fill="#16A9C7"/>
<path d="M37.4893 0H69.0753V4.39473H37.4893V0Z" fill="#1B3359"/>
</g>
<defs>
<clipPath id="clip0">
<rect width="75" height="75" fill="white"/>
</clipPath>
</defs>
</svg>
